<svg xmlns="http://www.w3.org/2000/svg" xmlns:xlink="http://www.w3.org/1999/xlink" width="2126" zoomAndPan="magnify" viewBox="0 0 1594.5 501.749987" height="669" preserveAspectRatio="xMidYMid meet" version="1.0"><defs><g/><clipPath id="aaf54ce5f0"><path d="M 104.3125 51.546875 L 1499.886719 51.546875 L 1499.886719 450.527344 L 104.3125 450.527344 Z M 104.3125 51.546875 " clip-rule="nonzero"/></clipPath><clipPath id="f23c0cec4f"><path d="M 104.3125 80 L 451 80 L 451 325.878906 L 104.3125 325.878906 Z M 104.3125 80 " clip-rule="nonzero"/></clipPath><clipPath id="667c4abafd"><path d="M 210 51.546875 L 324 51.546875 L 324 91 L 210 91 Z M 210 51.546875 " clip-rule="nonzero"/></clipPath><clipPath id="14fc8915a2"><path d="M 226 51.546875 L 308 51.546875 L 308 91 L 226 91 Z M 226 51.546875 " clip-rule="nonzero"/></clipPath><clipPath id="3a8a9e4a61"><path d="M 104.3125 172 L 236 172 L 236 208 L 104.3125 208 Z M 104.3125 172 " clip-rule="nonzero"/></clipPath><clipPath id="4c2d82249d"><path d="M 440 51.546875 L 520.355469 51.546875 L 520.355469 184 L 440 184 Z M 440 51.546875 " clip-rule="nonzero"/></clipPath><clipPath id="0c54439723"><path d="M 336 51.546875 L 492 51.546875 L 492 89 L 336 89 Z M 336 51.546875 " clip-rule="nonzero"/></clipPath><clipPath id="d3528ee265"><path d="M 371 51.546875 L 491 51.546875 L 491 78 L 371 78 Z M 371 51.546875 " clip-rule="nonzero"/></clipPath><clipPath id="96d8d5fe14"><path d="M 409 51.546875 L 429 51.546875 L 429 56 L 409 56 Z M 409 51.546875 " clip-rule="nonzero"/></clipPath><clipPath id="6ad2937c84"><path d="M 391 51.546875 L 414 51.546875 L 414 57 L 391 57 Z M 391 51.546875 " clip-rule="nonzero"/></clipPath><clipPath id="2a9148bec7"><path d="M 402 51.546875 L 422 51.546875 L 422 64 L 402 64 Z M 402 51.546875 " clip-rule="nonzero"/></clipPath><clipPath id="2fff332215"><path d="M 402 51.546875 L 414 51.546875 L 414 58 L 402 58 Z M 402 51.546875 " clip-rule="nonzero"/></clipPath><clipPath id="8f06f9eac4"><path d="M 437 51.546875 L 457 51.546875 L 457 53 L 437 53 Z M 437 51.546875 " clip-rule="nonzero"/></clipPath><clipPath id="931a903891"><path d="M 455.566406 435 L 709 435 L 709 444.21875 L 455.566406 444.21875 Z M 455.566406 435 " clip-rule="nonzero"/></clipPath><clipPath id="23894beda2"><path d="M 701 349 L 756.917969 349 L 756.917969 444.21875 L 701 444.21875 Z M 701 349 " clip-rule="nonzero"/></clipPath><clipPath id="811fb0076e"><path d="M 629 330.277344 L 737 330.277344 L 737 441 L 629 441 Z M 629 330.277344 " clip-rule="nonzero"/></clipPath><clipPath id="048a9d4a7f"><path d="M 728 330.277344 L 756.917969 330.277344 L 756.917969 359 L 728 359 Z M 728 330.277344 " clip-rule="nonzero"/></clipPath><clipPath id="026ae32a3e"><path d="M 695 439 L 740 439 L 740 444.21875 L 695 444.21875 Z M 695 439 " clip-rule="nonzero"/></clipPath><clipPath id="aacf96e937"><path d="M 104.382812 52 L 508.359375 52 L 508.359375 450.347656 L 104.382812 450.347656 Z M 104.382812 52 " clip-rule="nonzero"/></clipPath><clipPath id="9ebc386ada"><path d="M 996.835938 396 L 1250 396 L 1250 443.789062 L 996.835938 443.789062 Z M 996.835938 396 " clip-rule="nonzero"/></clipPath><clipPath id="65c7f6b0b4"><path d="M 1242 310 L 1298 310 L 1298 443.789062 L 1242 443.789062 Z M 1242 310 " clip-rule="nonzero"/></clipPath><clipPath id="811a269a54"><path d="M 1242 436 L 1281 436 L 1281 443.789062 L 1242 443.789062 Z M 1242 436 " clip-rule="nonzero"/></clipPath><clipPath id="8aaa3a58a6"><path d="M 1095.765625 52 L 1499.8125 52 L 1499.8125 450.347656 L 1095.765625 450.347656 Z M 1095.765625 52 " clip-rule="nonzero"/></clipPath></defs><g clip-path="url(#aaf54ce5f0)"><path fill="#ffffff" d="M 104.3125 51.546875 L 1499.886719 51.546875 L 1499.886719 450.527344 L 104.3125 450.527344 Z M 104.3125 51.546875 " fill-opacity="1" fill-rule="nonzero"/></g><path stroke-linecap="round" transform="matrix(1.671891, 0, 0, 1.671683, -53.429176, -228.462509)" fill="none" stroke-linejoin="round" d="M 130.799867 187.800535 L 114.300022 187.800535 " stroke="#5d9ad0" stroke-width="6" stroke-opacity="1" stroke-miterlimit="10"/><g clip-path="url(#f23c0cec4f)"><path stroke-linecap="round" transform="matrix(1.671891, 0, 0, 1.671683, -53.429176, -228.462509)" fill="none" stroke-linejoin="round" d="M 100.099221 187.800535 C 91.800234 187.800535 84.998896 194.600381 84.998896 202.900399 L 84.998896 313.499543 C 84.998896 321.799561 91.800234 328.599407 100.099221 328.599407 L 283.300771 328.599407 C 291.599759 328.599407 298.401097 321.799561 298.401097 313.499543 L 298.401097 202.900399 C 298.401097 194.600381 291.599759 187.800535 283.300771 187.800535 L 156.400094 187.800535 " stroke="#5d9ad0" stroke-width="6" stroke-opacity="1" stroke-miterlimit="10"/></g><path stroke-linecap="round" transform="matrix(1.671891, 0, 0, 1.671683, -53.429176, -228.462509)" fill="none" stroke-linejoin="round" d="M 249.499687 320.500347 L 274.20039 320.500347 " stroke="#5d9ad0" stroke-width="6" stroke-opacity="1" stroke-miterlimit="10"/><path stroke-linecap="round" transform="matrix(1.671891, 0, 0, 1.671683, -53.429176, -228.462509)" fill="none" stroke-linejoin="round" d="M 230.700798 320.500347 L 240.298839 320.500347 " stroke="#5d9ad0" stroke-width="6" stroke-opacity="1" stroke-miterlimit="10"/><g clip-path="url(#667c4abafd)"><path stroke-linecap="round" transform="matrix(1.671891, 0, 0, 1.671683, -53.429176, -228.462509)" fill="none" stroke-linejoin="round" d="M 222.499941 187.800535 L 222.499941 165.300288 C 222.499941 162.199465 219.999964 159.601036 216.79906 159.601036 L 166.600933 159.601036 C 163.500495 159.601036 160.900052 162.098986 160.900052 165.300288 L 160.900052 187.800535 " stroke="#5d9ad0" stroke-width="6" stroke-opacity="1" stroke-miterlimit="10"/></g><g clip-path="url(#14fc8915a2)"><path stroke-linecap="round" transform="matrix(1.671891, 0, 0, 1.671683, -53.429176, -228.462509)" fill="none" stroke-linejoin="round" d="M 213.00003 187.800535 L 213.00003 173.798928 C 213.00003 171.600077 211.200981 169.898947 209.100534 169.898947 L 174.299459 169.898947 C 172.100881 169.898947 170.399963 171.700556 170.399963 173.798928 L 170.399963 187.800535 " stroke="#5d9ad0" stroke-width="6" stroke-opacity="1" stroke-miterlimit="10"/></g><path stroke-linecap="round" transform="matrix(1.671891, 0, 0, 1.671683, -53.429176, -228.462509)" fill="none" stroke-linejoin="round" d="M 215.799069 258.000182 L 283.300771 258.000182 C 291.599759 258.000182 298.401097 251.200336 298.401097 242.900318 " stroke="#5d9ad0" stroke-width="6" stroke-opacity="1" stroke-miterlimit="10"/><g clip-path="url(#3a8a9e4a61)"><path stroke-linecap="round" transform="matrix(1.671891, 0, 0, 1.671683, -53.429176, -228.462509)" fill="none" stroke-linejoin="round" d="M 84.998896 242.900318 C 84.998896 251.200336 91.800234 258.000182 100.099221 258.000182 L 170.000434 258.000182 " stroke="#5d9ad0" stroke-width="6" stroke-opacity="1" stroke-miterlimit="10"/></g><path stroke-linecap="round" transform="matrix(1.671891, 0, 0, 1.671683, -53.429176, -228.462509)" fill="none" stroke-linejoin="round" d="M 205.799163 267.900851 L 180.00034 267.900851 C 174.500392 267.900851 170.000434 263.400334 170.000434 257.899703 C 170.000434 252.399071 174.500392 247.900892 180.00034 247.900892 L 205.799163 247.900892 C 211.299111 247.900892 215.799069 252.399071 215.799069 257.899703 C 215.799069 263.500813 211.299111 267.900851 205.799163 267.900851 Z M 205.799163 267.900851 " stroke="#5d9ad0" stroke-width="6" stroke-opacity="1" stroke-miterlimit="10"/><g clip-path="url(#4c2d82249d)"><path stroke-linecap="round" transform="matrix(1.671891, 0, 0, 1.671683, -53.429176, -228.462509)" fill="none" stroke-linejoin="round" d="M 340.19977 113.49995 L 340.19977 236.399571 C 340.19977 240.199073 337.099331 243.299896 333.300302 243.299896 L 298.401097 243.299896 " stroke="#5d9ad0" stroke-width="6" stroke-opacity="1" stroke-miterlimit="10"/></g><g clip-path="url(#0c54439723)"><path stroke-linecap="round" transform="matrix(1.671891, 0, 0, 1.671683, -53.429176, -228.462509)" fill="none" stroke-linejoin="round" d="M 236.200747 186.400841 L 236.200747 103.599281 C 236.200747 99.799779 239.298848 96.698956 243.100214 96.698956 L 322.900867 96.698956 " stroke="#5d9ad0" stroke-width="6" stroke-opacity="1" stroke-miterlimit="10"/></g><path stroke-linecap="round" transform="matrix(1.671891, 0, 0, 1.671683, -53.429176, -228.462509)" fill="none" stroke-linejoin="round" d="M 293.200211 191.499558 L 325.400843 191.499558 " stroke="#5d9ad0" stroke-width="6" stroke-opacity="1" stroke-miterlimit="10"/><path stroke-linecap="round" transform="matrix(1.671891, 0, 0, 1.671683, -53.429176, -228.462509)" fill="none" stroke-linejoin="round" d="M 298.401097 207.300437 L 325.400843 207.300437 " stroke="#5d9ad0" stroke-width="6" stroke-opacity="1" stroke-miterlimit="10"/><path stroke-linecap="round" transform="matrix(1.671891, 0, 0, 1.671683, -53.429176, -228.462509)" fill="none" stroke-linejoin="round" d="M 298.401097 223.000837 L 325.400843 223.000837 " stroke="#5d9ad0" stroke-width="6" stroke-opacity="1" stroke-miterlimit="10"/><g clip-path="url(#d3528ee265)"><path stroke-linecap="round" transform="matrix(1.671891, 0, 0, 1.671683, -53.429176, -228.462509)" fill="none" stroke-linejoin="round" d="M 322.400871 179.799616 L 257.200549 179.799616 C 257.200549 179.799616 257.200549 176.899751 257.200549 172.499713 L 257.200549 160.799772 C 257.200549 144.300214 257.200549 123.001041 257.200549 123.001041 " stroke="#5d9ad0" stroke-width="6" stroke-opacity="1" stroke-miterlimit="10"/></g><path stroke-linecap="round" transform="matrix(1.671891, 0, 0, 1.671683, -53.429176, -228.462509)" fill="none" stroke-linejoin="round" d="M 317.300452 182.699482 L 321.900876 180.400153 C 322.400871 180.101053 322.400871 179.400038 321.900876 179.19908 L 317.300452 176.899751 " stroke="#5d9ad0" stroke-width="6" stroke-opacity="1" stroke-miterlimit="10"/><g clip-path="url(#96d8d5fe14)"><path stroke-linecap="round" transform="matrix(1.671891, 0, 0, 1.671683, -53.429176, -228.462509)" fill="none" stroke-linejoin="round" d="M 279.599872 166.699982 L 284.999354 153.899447 " stroke="#5d9ad0" stroke-width="6" stroke-opacity="1" stroke-miterlimit="10"/></g><g clip-path="url(#6ad2937c84)"><path stroke-linecap="round" transform="matrix(1.671891, 0, 0, 1.671683, -53.429176, -228.462509)" fill="none" stroke-linejoin="round" d="M 268.899037 161.299829 L 276.099904 167.400997 " stroke="#5d9ad0" stroke-width="6" stroke-opacity="1" stroke-miterlimit="10"/></g><g clip-path="url(#2a9148bec7)"><path stroke-linecap="round" transform="matrix(1.671891, 0, 0, 1.671683, -53.429176, -228.462509)" fill="none" stroke-linejoin="round" d="M 278.300818 166.300403 C 279.898934 166.300403 281.099857 167.599618 281.099857 169.09979 C 281.099857 170.599962 279.800804 171.899177 278.300818 171.899177 C 276.999429 171.899177 275.898972 170.999541 275.599909 169.898947 " stroke="#5d9ad0" stroke-width="6" stroke-opacity="1" stroke-miterlimit="10"/></g><g clip-path="url(#2fff332215)"><path stroke-linecap="round" transform="matrix(1.671891, 0, 0, 1.671683, -53.429176, -228.462509)" fill="none" stroke-linejoin="round" d="M 275.599909 168.300633 C 275.700375 167.999196 275.898972 167.700097 276.099904 167.400997 " stroke="#5d9ad0" stroke-width="6" stroke-opacity="1" stroke-miterlimit="10"/></g><g clip-path="url(#8f06f9eac4)"><path stroke-linecap="round" transform="matrix(1.671891, 0, 0, 1.671683, -53.429176, -228.462509)" fill="none" stroke-linejoin="round" d="M 299.300621 159.400079 C 300.901073 159.400079 302.09966 160.699293 302.09966 162.199465 C 302.09966 163.800116 300.800607 164.998852 299.300621 164.998852 C 297.999231 164.998852 296.901111 164.099216 296.599712 163.000959 " stroke="#5d9ad0" stroke-width="6" stroke-opacity="1" stroke-miterlimit="10"/></g><path stroke-linecap="round" transform="matrix(1.15283, 0, 0, 1.152277, 361.034482, 222.541924)" fill="none" stroke-linejoin="round" d="M 130.799592 187.801553 L 114.301473 187.801553 " stroke="#5d9ad0" stroke-width="6" stroke-opacity="1" stroke-miterlimit="10"/><g clip-path="url(#931a903891)"><path stroke-linecap="round" transform="matrix(1.15283, 0, 0, 1.152277, 361.034482, 222.541924)" fill="none" stroke-linejoin="round" d="M 100.10069 187.801553 C 91.799111 187.801553 84.998593 194.598555 84.998593 202.900728 L 84.998593 313.500318 C 84.998593 321.799101 91.799111 328.599492 100.10069 328.599492 L 283.301299 328.599492 C 291.59949 328.599492 298.400008 321.799101 298.400008 313.500318 L 298.400008 202.900728 C 298.400008 194.598555 291.59949 187.801553 283.301299 187.801553 L 156.398952 187.801553 " stroke="#5d9ad0" stroke-width="6" stroke-opacity="1" stroke-miterlimit="10"/></g><path stroke-linecap="round" transform="matrix(1.15283, 0, 0, 1.152277, 361.034482, 222.541924)" fill="none" stroke-linejoin="round" d="M 222.499854 187.801553 L 222.499854 165.298562 C 222.499854 162.200079 219.999215 159.599929 216.800566 159.599929 L 166.601423 159.599929 C 163.501038 159.599929 160.898747 162.098378 160.898747 165.298562 L 160.898747 187.801553 " stroke="#5d9ad0" stroke-width="6" stroke-opacity="1" stroke-miterlimit="10"/><path stroke-linecap="round" transform="matrix(1.15283, 0, 0, 1.152277, 361.034482, 222.541924)" fill="none" stroke-linejoin="round" d="M 212.998781 187.801553 L 212.998781 173.800747 C 212.998781 171.60062 211.199541 169.898827 209.098733 169.898827 L 174.299868 169.898827 C 172.100796 169.898827 170.39982 171.698931 170.39982 173.800747 L 170.39982 187.801553 " stroke="#5d9ad0" stroke-width="6" stroke-opacity="1" stroke-miterlimit="10"/><g clip-path="url(#23894beda2)"><path stroke-linecap="round" transform="matrix(1.15283, 0, 0, 1.152277, 361.034482, 222.541924)" fill="none" stroke-linejoin="round" d="M 340.199307 113.498969 L 340.199307 236.400962 C 340.199307 240.201181 337.098922 243.299665 333.300525 243.299665 L 298.400008 243.299665 " stroke="#5d9ad0" stroke-width="6" stroke-opacity="1" stroke-miterlimit="10"/></g><g clip-path="url(#811fb0076e)"><path stroke-linecap="round" transform="matrix(1.15283, 0, 0, 1.152277, 361.034482, 222.541924)" fill="none" stroke-linejoin="round" d="M 236.199154 186.401473 L 236.199154 103.600094 C 236.199154 99.799875 239.29954 96.701391 243.101324 96.701391 L 322.901527 96.701391 " stroke="#5d9ad0" stroke-width="6" stroke-opacity="1" stroke-miterlimit="10"/></g><g clip-path="url(#048a9d4a7f)"><path stroke-linecap="round" transform="matrix(1.15283, 0, 0, 1.152277, 361.034482, 222.541924)" fill="none" stroke-linejoin="round" d="M 340.199307 113.498969 L 325.998524 115.00075 C 323.799453 114.89905 322.000212 113.298957 321.800297 111.098831 L 322.901527 96.701391 Z M 340.199307 113.498969 " stroke="#5d9ad0" stroke-width="6" stroke-opacity="1" stroke-miterlimit="10"/></g><g clip-path="url(#026ae32a3e)"><path stroke-linecap="round" transform="matrix(1.15283, 0, 0, 1.152277, 361.034482, 222.541924)" fill="none" stroke-linejoin="round" d="M 293.198814 191.500071 L 325.398777 191.500071 " stroke="#5d9ad0" stroke-width="6" stroke-opacity="1" stroke-miterlimit="10"/></g><path stroke-linecap="round" transform="matrix(1.15283, 0, 0, 1.152277, 361.034482, 222.541924)" fill="none" stroke-linejoin="round" d="M 322.400043 179.801092 L 257.200456 179.801092 C 257.200456 179.801092 257.200456 176.89923 257.200456 172.498977 L 257.200456 160.799998 C 257.200456 144.300743 257.200456 123.001211 257.200456 123.001211 " stroke="#5d9ad0" stroke-width="6" stroke-opacity="1" stroke-miterlimit="10"/><path stroke-linecap="round" transform="matrix(1.15283, 0, 0, 1.152277, 361.034482, 222.541924)" fill="none" stroke-linejoin="round" d="M 260.700673 127.401464 L 258.000118 123.401234 C 257.69855 122.89951 256.898888 122.89951 256.600709 123.401234 L 253.900154 127.401464 " stroke="#5d9ad0" stroke-width="6" stroke-opacity="1" stroke-miterlimit="10"/><path stroke-linecap="round" transform="matrix(1.15283, 0, 0, 1.152277, 361.034482, 222.541924)" fill="none" stroke-linejoin="round" d="M 317.300502 182.699564 L 321.89856 180.401127 C 322.400043 180.099415 322.400043 179.401069 321.89856 179.201058 L 317.300502 176.89923 " stroke="#5d9ad0" stroke-width="6" stroke-opacity="1" stroke-miterlimit="10"/><path stroke-linecap="round" transform="matrix(1.15283, 0, 0, 1.152277, 361.034482, 222.541924)" fill="none" stroke-linejoin="round" d="M 300.59908 159.70163 L 312.20096 132.598374 " stroke="#5d9ad0" stroke-width="6" stroke-opacity="1" stroke-miterlimit="10"/><path stroke-linecap="round" transform="matrix(1.15283, 0, 0, 1.152277, 361.034482, 222.541924)" fill="none" stroke-linejoin="round" d="M 288.499104 152.999549 L 297.200515 160.501676 " stroke="#5d9ad0" stroke-width="6" stroke-opacity="1" stroke-miterlimit="10"/><path stroke-linecap="round" transform="matrix(1.15283, 0, 0, 1.152277, 361.034482, 222.541924)" fill="none" stroke-linejoin="round" d="M 279.601166 166.698643 L 284.998887 153.901296 " stroke="#5d9ad0" stroke-width="6" stroke-opacity="1" stroke-miterlimit="10"/><path stroke-linecap="round" transform="matrix(1.15283, 0, 0, 1.152277, 361.034482, 222.541924)" fill="none" stroke-linejoin="round" d="M 268.9006 161.298332 L 276.100949 167.400378 " stroke="#5d9ad0" stroke-width="6" stroke-opacity="1" stroke-miterlimit="10"/><path stroke-linecap="round" transform="matrix(1.15283, 0, 0, 1.152277, 361.034482, 222.541924)" fill="none" stroke-linejoin="round" d="M 266.901444 156.501445 C 268.500769 156.501445 269.700262 157.799825 269.700262 159.301607 C 269.700262 160.901699 268.399117 162.098378 266.901444 162.098378 C 265.600299 162.098378 264.499069 161.200021 264.20089 160.101653 " stroke="#5d9ad0" stroke-width="6" stroke-opacity="1" stroke-miterlimit="10"/><path stroke-linecap="round" transform="matrix(1.15283, 0, 0, 1.152277, 361.034482, 222.541924)" fill="none" stroke-linejoin="round" d="M 264.299153 158.39986 C 264.400805 158.101538 264.600721 157.799825 264.800636 157.501503 " stroke="#5d9ad0" stroke-width="6" stroke-opacity="1" stroke-miterlimit="10"/><path stroke-linecap="round" transform="matrix(1.15283, 0, 0, 1.152277, 361.034482, 222.541924)" fill="none" stroke-linejoin="round" d="M 278.300021 166.29862 C 279.899346 166.29862 281.098839 167.60039 281.098839 169.098781 C 281.098839 170.600563 279.801082 171.898942 278.300021 171.898942 C 276.998875 171.898942 275.901034 171.000586 275.599466 169.898827 " stroke="#5d9ad0" stroke-width="6" stroke-opacity="1" stroke-miterlimit="10"/><path stroke-linecap="round" transform="matrix(1.15283, 0, 0, 1.152277, 361.034482, 222.541924)" fill="none" stroke-linejoin="round" d="M 275.599466 168.298735 C 275.701118 168.000413 275.901034 167.698701 276.100949 167.400378 " stroke="#5d9ad0" stroke-width="6" stroke-opacity="1" stroke-miterlimit="10"/><path stroke-linecap="round" transform="matrix(1.15283, 0, 0, 1.152277, 361.034482, 222.541924)" fill="none" stroke-linejoin="round" d="M 286.300033 148.199272 C 287.899357 148.199272 289.098851 149.501042 289.098851 150.999434 C 289.098851 152.501215 287.801094 153.799595 286.300033 153.799595 C 284.998887 153.799595 283.901046 152.901238 283.599478 151.79948 " stroke="#5d9ad0" stroke-width="6" stroke-opacity="1" stroke-miterlimit="10"/><path stroke-linecap="round" transform="matrix(1.15283, 0, 0, 1.152277, 361.034482, 222.541924)" fill="none" stroke-linejoin="round" d="M 283.599478 150.199388 C 283.70113 149.901065 283.901046 149.599353 284.100961 149.301031 " stroke="#5d9ad0" stroke-width="6" stroke-opacity="1" stroke-miterlimit="10"/><path stroke-linecap="round" transform="matrix(1.15283, 0, 0, 1.152277, 361.034482, 222.541924)" fill="none" stroke-linejoin="round" d="M 313.298802 127.201453 C 314.901515 127.201453 316.101008 128.499833 316.101008 130.001614 C 316.101008 131.598316 314.799863 132.798385 313.298802 132.798385 C 312.001045 132.798385 310.899815 131.900029 310.601636 130.80166 " stroke="#5d9ad0" stroke-width="6" stroke-opacity="1" stroke-miterlimit="10"/><path stroke-linecap="round" transform="matrix(1.15283, 0, 0, 1.152277, 361.034482, 222.541924)" fill="none" stroke-linejoin="round" d="M 310.699899 129.201568 C 310.801551 128.899856 311.001467 128.601534 311.201382 128.299821 " stroke="#5d9ad0" stroke-width="6" stroke-opacity="1" stroke-miterlimit="10"/><path stroke-linecap="round" transform="matrix(1.15283, 0, 0, 1.152277, 361.034482, 222.541924)" fill="none" stroke-linejoin="round" d="M 299.301322 159.399917 C 300.900647 159.399917 302.100141 160.701687 302.100141 162.200079 C 302.100141 163.800171 300.798995 165.00024 299.301322 165.00024 C 298.000177 165.00024 296.898947 164.098493 296.600768 163.000125 " stroke="#5d9ad0" stroke-width="6" stroke-opacity="1" stroke-miterlimit="10"/><path stroke-linecap="round" transform="matrix(1.15283, 0, 0, 1.152277, 361.034482, 222.541924)" fill="none" stroke-linejoin="round" d="M 296.699031 161.400033 C 296.800683 161.09832 297.000599 160.799998 297.200515 160.501676 " stroke="#5d9ad0" stroke-width="6" stroke-opacity="1" stroke-miterlimit="10"/><g clip-path="url(#aacf96e937)"><path fill="#1b9aa0" d="M 508.429688 450.121094 L 104.367188 52.003906 L 104.367188 450.121094 Z M 508.429688 450.121094 " fill-opacity="1" fill-rule="nonzero"/></g><path stroke-linecap="round" transform="matrix(1.15283, 0, 0, 1.152278, 902.303752, 183.129876)" fill="none" stroke-linejoin="round" d="M 130.799818 187.799766 L 114.298311 187.799766 " stroke="#5d9ad0" stroke-width="6" stroke-opacity="1" stroke-miterlimit="10"/><g clip-path="url(#9ebc386ada)"><path stroke-linecap="round" transform="matrix(1.15283, 0, 0, 1.152278, 902.303752, 183.129876)" fill="none" stroke-linejoin="round" d="M 100.100917 187.799766 C 91.799337 187.799766 84.998819 194.600156 84.998819 202.898937 L 84.998819 313.498504 C 84.998819 321.800676 91.799337 328.601066 100.100917 328.601066 L 283.301525 328.601066 C 291.599716 328.601066 298.400234 321.800676 298.400234 313.498504 L 298.400234 202.898937 C 298.400234 194.600156 291.599716 187.799766 283.301525 187.799766 L 156.399178 187.799766 " stroke="#5d9ad0" stroke-width="6" stroke-opacity="1" stroke-miterlimit="10"/></g><path stroke-linecap="round" transform="matrix(1.15283, 0, 0, 1.152278, 902.303752, 183.129876)" fill="none" stroke-linejoin="round" d="M 222.50008 187.799766 L 222.50008 165.30017 C 222.50008 162.201687 219.999441 159.601538 216.800792 159.601538 L 166.60165 159.601538 C 163.501264 159.601538 160.898973 162.099986 160.898973 165.30017 L 160.898973 187.799766 " stroke="#5d9ad0" stroke-width="6" stroke-opacity="1" stroke-miterlimit="10"/><path stroke-linecap="round" transform="matrix(1.15283, 0, 0, 1.152278, 902.303752, 183.129876)" fill="none" stroke-linejoin="round" d="M 212.999007 187.799766 L 212.999007 173.798962 C 212.999007 171.598836 211.199767 169.900434 209.098959 169.900434 L 174.300094 169.900434 C 172.101023 169.900434 170.400046 171.700537 170.400046 173.798962 L 170.400046 187.799766 " stroke="#5d9ad0" stroke-width="6" stroke-opacity="1" stroke-miterlimit="10"/><g clip-path="url(#65c7f6b0b4)"><path stroke-linecap="round" transform="matrix(1.15283, 0, 0, 1.152278, 902.303752, 183.129876)" fill="none" stroke-linejoin="round" d="M 340.199534 113.500587 L 340.199534 236.399165 C 340.199534 240.199383 337.099148 243.301256 333.300752 243.301256 L 298.400234 243.301256 " stroke="#5d9ad0" stroke-width="6" stroke-opacity="1" stroke-miterlimit="10"/></g><path stroke-linecap="round" transform="matrix(1.15283, 0, 0, 1.152278, 902.303752, 183.129876)" fill="none" stroke-linejoin="round" d="M 236.19938 186.399686 L 236.19938 103.598324 C 236.19938 99.801496 239.299766 96.699623 243.101551 96.699623 L 322.898365 96.699623 " stroke="#5d9ad0" stroke-width="6" stroke-opacity="1" stroke-miterlimit="10"/><path stroke-linecap="round" transform="matrix(1.15283, 0, 0, 1.152278, 902.303752, 183.129876)" fill="none" stroke-linejoin="round" d="M 340.199534 113.500587 L 325.99875 114.998978 C 323.799679 114.900667 322.000439 113.300576 321.800523 111.100449 L 322.898365 96.699623 Z M 340.199534 113.500587 " stroke="#5d9ad0" stroke-width="6" stroke-opacity="1" stroke-miterlimit="10"/><path stroke-linecap="round" transform="matrix(1.15283, 0, 0, 1.152278, 902.303752, 183.129876)" fill="none" stroke-linejoin="round" d="M 293.199041 191.501673 L 325.399004 191.501673 " stroke="#5d9ad0" stroke-width="6" stroke-opacity="1" stroke-miterlimit="10"/><path stroke-linecap="round" transform="matrix(1.15283, 0, 0, 1.152278, 902.303752, 183.129876)" fill="none" stroke-linejoin="round" d="M 298.400234 207.29919 L 325.399004 207.29919 " stroke="#5d9ad0" stroke-width="6" stroke-opacity="1" stroke-miterlimit="10"/><g clip-path="url(#811a269a54)"><path stroke-linecap="round" transform="matrix(1.15283, 0, 0, 1.152278, 902.303752, 183.129876)" fill="none" stroke-linejoin="round" d="M 298.400234 222.998396 L 325.399004 222.998396 " stroke="#5d9ad0" stroke-width="6" stroke-opacity="1" stroke-miterlimit="10"/></g><path stroke-linecap="round" transform="matrix(1.15283, 0, 0, 1.152278, 902.303752, 183.129876)" fill="none" stroke-linejoin="round" d="M 322.40027 179.799307 L 257.200682 179.799307 C 257.200682 179.799307 257.200682 176.900835 257.200682 172.500583 L 257.200682 160.801606 C 257.200682 144.298965 257.200682 122.999437 257.200682 122.999437 " stroke="#5d9ad0" stroke-width="6" stroke-opacity="1" stroke-miterlimit="10"/><path stroke-linecap="round" transform="matrix(1.15283, 0, 0, 1.152278, 902.303752, 183.129876)" fill="none" stroke-linejoin="round" d="M 260.700899 127.39969 L 258.000344 123.39946 C 257.698777 122.901126 256.899114 122.901126 256.600935 123.39946 L 253.900381 127.39969 " stroke="#5d9ad0" stroke-width="6" stroke-opacity="1" stroke-miterlimit="10"/><path stroke-linecap="round" transform="matrix(1.15283, 0, 0, 1.152278, 902.303752, 183.129876)" fill="none" stroke-linejoin="round" d="M 317.300728 182.701168 L 321.898787 180.399341 C 322.40027 180.101019 322.40027 179.399284 321.898787 179.199272 L 317.300728 176.900835 " stroke="#5d9ad0" stroke-width="6" stroke-opacity="1" stroke-miterlimit="10"/><path stroke-linecap="round" transform="matrix(1.15283, 0, 0, 1.152278, 902.303752, 183.129876)" fill="none" stroke-linejoin="round" d="M 300.599306 159.699848 L 312.201187 132.599988 " stroke="#5d9ad0" stroke-width="6" stroke-opacity="1" stroke-miterlimit="10"/><path stroke-linecap="round" transform="matrix(1.15283, 0, 0, 1.152278, 902.303752, 183.129876)" fill="none" stroke-linejoin="round" d="M 288.49933 153.001159 L 297.200741 160.499894 " stroke="#5d9ad0" stroke-width="6" stroke-opacity="1" stroke-miterlimit="10"/><path stroke-linecap="round" transform="matrix(1.15283, 0, 0, 1.152278, 902.303752, 183.129876)" fill="none" stroke-linejoin="round" d="M 279.601393 166.70025 L 284.999113 153.899515 " stroke="#5d9ad0" stroke-width="6" stroke-opacity="1" stroke-miterlimit="10"/><path stroke-linecap="round" transform="matrix(1.15283, 0, 0, 1.152278, 902.303752, 183.129876)" fill="none" stroke-linejoin="round" d="M 268.900826 161.29994 L 276.101176 167.398595 " stroke="#5d9ad0" stroke-width="6" stroke-opacity="1" stroke-miterlimit="10"/><path stroke-linecap="round" transform="matrix(1.15283, 0, 0, 1.152278, 902.303752, 183.129876)" fill="none" stroke-linejoin="round" d="M 266.90167 156.499665 C 268.500995 156.499665 269.700489 157.801434 269.700489 159.299825 C 269.700489 160.899917 268.399343 162.099986 266.90167 162.099986 C 265.600525 162.099986 264.499295 161.201629 264.201116 160.099871 " stroke="#5d9ad0" stroke-width="6" stroke-opacity="1" stroke-miterlimit="10"/><path stroke-linecap="round" transform="matrix(1.15283, 0, 0, 1.152278, 902.303752, 183.129876)" fill="none" stroke-linejoin="round" d="M 264.299379 158.401469 C 264.401031 158.099756 264.600947 157.801434 264.800863 157.499722 " stroke="#5d9ad0" stroke-width="6" stroke-opacity="1" stroke-miterlimit="10"/><path stroke-linecap="round" transform="matrix(1.15283, 0, 0, 1.152278, 902.303752, 183.129876)" fill="none" stroke-linejoin="round" d="M 278.300247 166.300227 C 279.899572 166.300227 281.099065 167.598607 281.099065 169.100388 C 281.099065 170.598779 279.801308 171.900548 278.300247 171.900548 C 276.999102 171.900548 275.90126 170.998802 275.599693 169.900434 " stroke="#5d9ad0" stroke-width="6" stroke-opacity="1" stroke-miterlimit="10"/><path stroke-linecap="round" transform="matrix(1.15283, 0, 0, 1.152278, 902.303752, 183.129876)" fill="none" stroke-linejoin="round" d="M 275.599693 168.300342 C 275.701345 167.99863 275.90126 167.700307 276.101176 167.398595 " stroke="#5d9ad0" stroke-width="6" stroke-opacity="1" stroke-miterlimit="10"/><path stroke-linecap="round" transform="matrix(1.15283, 0, 0, 1.152278, 902.303752, 183.129876)" fill="none" stroke-linejoin="round" d="M 286.300259 148.200883 C 287.899584 148.200883 289.099077 149.499263 289.099077 151.001044 C 289.099077 152.499435 287.80132 153.801205 286.300259 153.801205 C 284.999113 153.801205 283.901272 152.899458 283.599704 151.80109 " stroke="#5d9ad0" stroke-width="6" stroke-opacity="1" stroke-miterlimit="10"/><path stroke-linecap="round" transform="matrix(1.15283, 0, 0, 1.152278, 902.303752, 183.129876)" fill="none" stroke-linejoin="round" d="M 283.599704 150.200998 C 283.701356 149.899286 283.901272 149.600964 284.101188 149.299251 " stroke="#5d9ad0" stroke-width="6" stroke-opacity="1" stroke-miterlimit="10"/><path stroke-linecap="round" transform="matrix(1.15283, 0, 0, 1.152278, 902.303752, 183.129876)" fill="none" stroke-linejoin="round" d="M 313.299028 127.199678 C 314.898353 127.199678 316.101235 128.501448 316.101235 129.999839 C 316.101235 131.599931 314.800089 132.8 313.299028 132.8 C 312.001271 132.8 310.900041 131.901643 310.598474 130.799885 " stroke="#5d9ad0" stroke-width="6" stroke-opacity="1" stroke-miterlimit="10"/><path stroke-linecap="round" transform="matrix(1.15283, 0, 0, 1.152278, 902.303752, 183.129876)" fill="none" stroke-linejoin="round" d="M 310.700126 129.199793 C 310.798389 128.901471 311.001693 128.599759 311.201609 128.301436 " stroke="#5d9ad0" stroke-width="6" stroke-opacity="1" stroke-miterlimit="10"/><path stroke-linecap="round" transform="matrix(1.15283, 0, 0, 1.152278, 902.303752, 183.129876)" fill="none" stroke-linejoin="round" d="M 299.301549 159.401526 C 300.900873 159.401526 302.100367 160.699906 302.100367 162.201687 C 302.100367 163.798389 300.799221 164.998457 299.301549 164.998457 C 298.000403 164.998457 296.899173 164.100101 296.600994 162.998343 " stroke="#5d9ad0" stroke-width="6" stroke-opacity="1" stroke-miterlimit="10"/><path stroke-linecap="round" transform="matrix(1.15283, 0, 0, 1.152278, 902.303752, 183.129876)" fill="none" stroke-linejoin="round" d="M 296.699258 161.401641 C 296.80091 161.099929 297.000825 160.801606 297.200741 160.499894 " stroke="#5d9ad0" stroke-width="6" stroke-opacity="1" stroke-miterlimit="10"/><g clip-path="url(#8aaa3a58a6)"><path fill="#1b9aa0" d="M 1095.765625 450.121094 L 1499.828125 52.003906 L 1499.828125 450.121094 Z M 1095.765625 450.121094 " fill-opacity="1" fill-rule="nonzero"/></g><g fill="#000000" fill-opacity="1"><g transform="translate(103.699949, 335.744447)"><g><path d="M 54.578125 -158.609375 L 54.578125 -99.015625 L 120.078125 -99.015625 L 120.078125 -80.65625 L 54.578125 -80.65625 L 54.578125 -17.859375 L 134.984375 -17.859375 L 134.984375 0 L 32.234375 0 L 32.234375 -176.84375 L 132.671875 -176.84375 L 130.09375 -158.609375 Z M 54.578125 -158.609375 "/></g></g></g><g fill="#000000" fill-opacity="1"><g transform="translate(257.811504, 335.744447)"><g><path d="M 71.796875 -14.890625 C 82.148438 -14.890625 90.34375 -16.835938 96.375 -20.734375 C 102.414062 -24.628906 105.4375 -29.832031 105.4375 -36.34375 C 105.4375 -40.457031 104.6875 -44.007812 103.1875 -47 C 101.695312 -50 98.640625 -52.695312 94.015625 -55.09375 C 89.390625 -57.488281 82.28125 -59.882812 72.6875 -62.28125 C 63.351562 -64.59375 55.238281 -67.269531 48.34375 -70.3125 C 41.457031 -73.351562 36.109375 -77.3125 32.296875 -82.1875 C 28.484375 -87.070312 26.578125 -93.410156 26.578125 -101.203125 C 26.578125 -108.816406 28.738281 -115.382812 33.0625 -120.90625 C 37.394531 -126.4375 43.410156 -130.675781 51.109375 -133.625 C 58.816406 -136.582031 67.765625 -138.0625 77.953125 -138.0625 C 88.828125 -138.0625 98.3125 -136.625 106.40625 -133.75 C 114.5 -130.882812 121.367188 -127.351562 127.015625 -123.15625 L 117.515625 -108.515625 C 112.378906 -112.023438 106.726562 -114.914062 100.5625 -117.1875 C 94.394531 -119.457031 86.945312 -120.59375 78.21875 -120.59375 C 67.59375 -120.59375 60.054688 -118.941406 55.609375 -115.640625 C 51.160156 -112.347656 48.9375 -108.09375 48.9375 -102.875 C 48.9375 -98.9375 50.023438 -95.660156 52.203125 -93.046875 C 54.390625 -90.429688 58.09375 -88.078125 63.3125 -85.984375 C 68.539062 -83.890625 75.734375 -81.597656 84.890625 -79.109375 C 93.710938 -76.796875 101.394531 -74.015625 107.9375 -70.765625 C 114.488281 -67.515625 119.601562 -63.234375 123.28125 -57.921875 C 126.96875 -52.609375 128.8125 -45.757812 128.8125 -37.375 C 128.8125 -27.78125 126.070312 -20.007812 120.59375 -14.0625 C 115.113281 -8.113281 108.03125 -3.789062 99.34375 -1.09375 C 90.65625 1.601562 81.472656 2.953125 71.796875 2.953125 C 59.546875 2.953125 49.117188 1.175781 40.515625 -2.375 C 31.910156 -5.925781 24.695312 -10.226562 18.875 -15.28125 L 31.203125 -29.53125 C 36.515625 -25.164062 42.613281 -21.632812 49.5 -18.9375 C 56.394531 -16.238281 63.828125 -14.890625 71.796875 -14.890625 Z M 71.796875 -14.890625 "/></g></g></g><g fill="#000000" fill-opacity="1"><g transform="translate(411.923059, 335.744447)"><g><path d="M 133.1875 -6.8125 C 128.5625 -3.726562 122.953125 -1.332031 116.359375 0.375 C 109.765625 2.09375 103.300781 2.953125 96.96875 2.953125 C 82.40625 2.953125 71.1875 -0.851562 63.3125 -8.46875 C 55.4375 -16.09375 51.5 -25.898438 51.5 -37.890625 L 51.5 -118.546875 L 20.421875 -118.546875 L 20.421875 -135.234375 L 51.5 -135.234375 L 51.5 -165.9375 L 73.078125 -168.5 L 73.078125 -135.234375 L 119.828125 -135.234375 L 117.25 -118.546875 L 73.078125 -118.546875 L 73.078125 -38.140625 C 73.078125 -30.609375 75.066406 -24.875 79.046875 -20.9375 C 83.023438 -17 89.640625 -15.03125 98.890625 -15.03125 C 103.941406 -15.03125 108.609375 -15.628906 112.890625 -16.828125 C 117.171875 -18.023438 121.148438 -19.566406 124.828125 -21.453125 Z M 133.1875 -6.8125 "/></g></g></g><g fill="#000000" fill-opacity="1"><g transform="translate(566.034614, 335.744447)"><g><path d="M 122.65625 -29.53125 C 122.65625 -24.144531 123.550781 -20.207031 125.34375 -17.71875 C 127.144531 -15.238281 129.925781 -13.398438 133.6875 -12.203125 L 128.421875 2.953125 C 122.609375 2.179688 117.515625 0.320312 113.140625 -2.625 C 108.773438 -5.582031 105.609375 -10.054688 103.640625 -16.046875 C 98.765625 -9.796875 92.6875 -5.066406 85.40625 -1.859375 C 78.125 1.347656 70.078125 2.953125 61.265625 2.953125 C 47.734375 2.953125 37.070312 -0.851562 29.28125 -8.46875 C 21.488281 -16.09375 17.59375 -26.195312 17.59375 -38.78125 C 17.59375 -52.738281 23.03125 -63.441406 33.90625 -70.890625 C 44.78125 -78.335938 60.492188 -82.0625 81.046875 -82.0625 L 100.953125 -82.0625 L 100.953125 -93.375 C 100.953125 -103.132812 98.101562 -110.046875 92.40625 -114.109375 C 86.707031 -118.171875 78.804688 -120.203125 68.703125 -120.203125 C 64.253906 -120.203125 59.03125 -119.664062 53.03125 -118.59375 C 47.039062 -117.53125 40.535156 -115.757812 33.515625 -113.28125 L 27.875 -129.578125 C 36.175781 -132.660156 43.960938 -134.84375 51.234375 -136.125 C 58.515625 -137.414062 65.453125 -138.0625 72.046875 -138.0625 C 88.910156 -138.0625 101.5625 -134.144531 110 -126.3125 C 118.4375 -118.476562 122.65625 -107.835938 122.65625 -94.390625 Z M 66.78125 -13.484375 C 73.457031 -13.484375 79.832031 -15.171875 85.90625 -18.546875 C 91.988281 -21.929688 97.003906 -26.625 100.953125 -32.625 L 100.953125 -67.421875 L 81.421875 -67.421875 C 66.523438 -67.421875 56.015625 -64.851562 49.890625 -59.71875 C 43.773438 -54.582031 40.71875 -47.691406 40.71875 -39.046875 C 40.71875 -30.648438 42.878906 -24.289062 47.203125 -19.96875 C 51.523438 -15.644531 58.050781 -13.484375 66.78125 -13.484375 Z M 66.78125 -13.484375 "/></g></g></g><g fill="#000000" fill-opacity="1"><g transform="translate(720.146169, 335.744447)"><g><path d="M 135.75 -149.625 L 142.421875 -129.328125 C 136.691406 -127.523438 130.570312 -126.410156 124.0625 -125.984375 C 117.550781 -125.554688 110.488281 -125.34375 102.875 -125.34375 C 110.664062 -121.75 116.53125 -117.101562 120.46875 -111.40625 C 124.40625 -105.71875 126.375 -99.019531 126.375 -91.3125 C 126.375 -82.40625 124.359375 -74.484375 120.328125 -67.546875 C 116.304688 -60.617188 110.507812 -55.179688 102.9375 -51.234375 C 95.363281 -47.296875 86.222656 -45.328125 75.515625 -45.328125 C 70.972656 -45.328125 67.179688 -45.539062 64.140625 -45.96875 C 61.109375 -46.40625 58.179688 -47.050781 55.359375 -47.90625 C 53.296875 -46.53125 51.601562 -44.644531 50.28125 -42.25 C 48.957031 -39.851562 48.296875 -37.367188 48.296875 -34.796875 C 48.296875 -31.546875 49.578125 -28.847656 52.140625 -26.703125 C 54.710938 -24.566406 59.460938 -23.5 66.390625 -23.5 L 90.796875 -23.5 C 99.867188 -23.5 108.023438 -21.867188 115.265625 -18.609375 C 122.503906 -15.359375 128.195312 -10.992188 132.34375 -5.515625 C 136.5 -0.0351562 138.578125 6.210938 138.578125 13.234375 C 138.578125 26.503906 132.945312 36.691406 121.6875 43.796875 C 110.425781 50.898438 94.519531 54.453125 73.96875 54.453125 C 59.59375 54.453125 48.25 52.972656 39.9375 50.015625 C 31.632812 47.066406 25.707031 42.570312 22.15625 36.53125 C 18.601562 30.5 16.828125 22.898438 16.828125 13.734375 L 36.34375 13.734375 C 36.34375 18.960938 37.367188 23.285156 39.421875 26.703125 C 41.484375 30.128906 45.207031 32.675781 50.59375 34.34375 C 55.988281 36.019531 63.738281 36.859375 73.84375 36.859375 C 83.78125 36.859375 91.894531 36.019531 98.1875 34.34375 C 104.476562 32.675781 109.144531 30.195312 112.1875 26.90625 C 115.226562 23.613281 116.75 19.523438 116.75 14.640625 C 116.75 8.222656 113.835938 3.382812 108.015625 0.125 C 102.191406 -3.125 94.910156 -4.75 86.171875 -4.75 L 62.03125 -4.75 C 50.382812 -4.75 41.800781 -7.316406 36.28125 -12.453125 C 30.757812 -17.585938 28 -23.5 28 -30.1875 C 28 -34.550781 29.257812 -38.785156 31.78125 -42.890625 C 34.3125 -47.003906 38.015625 -50.644531 42.890625 -53.8125 C 35.097656 -57.925781 29.359375 -63.019531 25.671875 -69.09375 C 21.992188 -75.175781 20.15625 -82.539062 20.15625 -91.1875 C 20.15625 -100.34375 22.425781 -108.453125 26.96875 -115.515625 C 31.507812 -122.585938 37.84375 -128.132812 45.96875 -132.15625 C 54.101562 -136.175781 63.484375 -138.1875 74.109375 -138.1875 C 85.492188 -138.269531 94.738281 -138.757812 101.84375 -139.65625 C 108.945312 -140.5625 115.046875 -141.867188 120.140625 -143.578125 C 125.234375 -145.296875 130.4375 -147.3125 135.75 -149.625 Z M 74.109375 -122.390625 C 63.234375 -122.390625 55.203125 -119.457031 50.015625 -113.59375 C 44.835938 -107.726562 42.25 -100.257812 42.25 -91.1875 C 42.25 -82.019531 44.898438 -74.484375 50.203125 -68.578125 C 55.515625 -62.671875 63.65625 -59.71875 74.625 -59.71875 C 84.207031 -59.71875 91.503906 -62.5 96.515625 -68.0625 C 101.523438 -73.632812 104.03125 -81.382812 104.03125 -91.3125 C 104.03125 -101.5 101.523438 -109.222656 96.515625 -114.484375 C 91.503906 -119.753906 84.035156 -122.390625 74.109375 -122.390625 Z M 74.109375 -122.390625 "/></g></g></g><g fill="#000000" fill-opacity="1"><g transform="translate(874.257724, 335.744447)"><g><path d="M 94.265625 -135.234375 L 94.265625 -17.078125 L 132.40625 -17.078125 L 132.40625 0 L 30.953125 0 L 30.953125 -17.078125 L 72.6875 -17.078125 L 72.6875 -118.15625 L 32.234375 -118.15625 L 32.234375 -135.234375 Z M 77.0625 -198.546875 C 81.851562 -198.546875 85.679688 -197.085938 88.546875 -194.171875 C 91.421875 -191.265625 92.859375 -187.71875 92.859375 -183.53125 C 92.859375 -179.15625 91.421875 -175.488281 88.546875 -172.53125 C 85.679688 -169.582031 81.851562 -168.109375 77.0625 -168.109375 C 72.519531 -168.109375 68.789062 -169.582031 65.875 -172.53125 C 62.96875 -175.488281 61.515625 -179.15625 61.515625 -183.53125 C 61.515625 -187.71875 62.96875 -191.265625 65.875 -194.171875 C 68.789062 -197.085938 72.519531 -198.546875 77.0625 -198.546875 Z M 77.0625 -198.546875 "/></g></g></g><g fill="#000000" fill-opacity="1"><g transform="translate(1028.369279, 335.744447)"><g><path d="M 118.15625 -89.265625 C 118.15625 -104.671875 116.523438 -116.992188 113.265625 -126.234375 C 110.015625 -135.484375 105.734375 -142.421875 100.421875 -147.046875 C 95.117188 -151.671875 89.320312 -154.753906 83.03125 -156.296875 C 76.738281 -157.835938 70.550781 -158.609375 64.46875 -158.609375 L 43.671875 -158.609375 L 43.671875 -17.859375 L 64.734375 -17.859375 C 71.066406 -17.859375 77.378906 -18.863281 83.671875 -20.875 C 89.960938 -22.882812 95.71875 -26.476562 100.9375 -31.65625 C 106.164062 -36.832031 110.34375 -44.066406 113.46875 -53.359375 C 116.59375 -62.648438 118.15625 -74.617188 118.15625 -89.265625 Z M 141.921875 -89.265625 C 141.921875 -70.765625 139.519531 -55.671875 134.71875 -43.984375 C 129.925781 -32.296875 123.59375 -23.265625 115.71875 -16.890625 C 107.84375 -10.515625 99.21875 -6.101562 89.84375 -3.65625 C 80.46875 -1.21875 71.195312 0 62.03125 0 L 21.453125 0 L 21.453125 -176.84375 L 59.203125 -176.84375 C 69.566406 -176.84375 79.648438 -175.6875 89.453125 -173.375 C 99.253906 -171.0625 108.113281 -166.800781 116.03125 -160.59375 C 123.957031 -154.394531 130.253906 -145.554688 134.921875 -134.078125 C 139.585938 -122.609375 141.921875 -107.671875 141.921875 -89.265625 Z M 141.921875 -89.265625 "/></g></g></g><g fill="#000000" fill-opacity="1"><g transform="translate(1182.480834, 335.744447)"><g><path d="M 42.765625 -59.984375 C 43.191406 -49.535156 45.203125 -40.992188 48.796875 -34.359375 C 52.398438 -27.722656 57.15625 -22.84375 63.0625 -19.71875 C 68.96875 -16.59375 75.390625 -15.03125 82.328125 -15.03125 C 89.253906 -15.03125 95.519531 -16.054688 101.125 -18.109375 C 106.738281 -20.160156 112.5 -23.203125 118.40625 -27.234375 L 128.5625 -12.96875 C 122.21875 -8 115 -4.101562 106.90625 -1.28125 C 98.820312 1.539062 90.539062 2.953125 82.0625 2.953125 C 68.96875 2.953125 57.796875 0 48.546875 -5.90625 C 39.296875 -11.8125 32.25 -20.050781 27.40625 -30.625 C 22.570312 -41.195312 20.15625 -53.460938 20.15625 -67.421875 C 20.15625 -81.117188 22.59375 -93.273438 27.46875 -103.890625 C 32.351562 -114.515625 39.207031 -122.863281 48.03125 -128.9375 C 56.851562 -135.019531 67.253906 -138.0625 79.234375 -138.0625 C 90.628906 -138.0625 100.4375 -135.382812 108.65625 -130.03125 C 116.875 -124.6875 123.1875 -117.066406 127.59375 -107.171875 C 132 -97.285156 134.203125 -85.492188 134.203125 -71.796875 C 134.203125 -69.484375 134.160156 -67.316406 134.078125 -65.296875 C 133.992188 -63.285156 133.863281 -61.515625 133.6875 -59.984375 Z M 79.5 -120.34375 C 69.476562 -120.34375 61.109375 -116.785156 54.390625 -109.671875 C 47.671875 -102.566406 43.835938 -91.566406 42.890625 -76.671875 L 113.40625 -76.671875 C 113.144531 -91.140625 109.972656 -102.035156 103.890625 -109.359375 C 97.816406 -116.679688 89.6875 -120.34375 79.5 -120.34375 Z M 79.5 -120.34375 "/></g></g></g><g fill="#000000" fill-opacity="1"><g transform="translate(1336.592389, 335.744447)"><g><path d="M 138.578125 -135.234375 L 89.390625 0 L 64.34375 0 L 15.546875 -135.234375 L 38.40625 -135.234375 L 77.578125 -19.65625 L 116.234375 -135.234375 Z M 138.578125 -135.234375 "/></g></g></g></svg>